<svg width="16" height="16" viewBox="0 0 16 16" fill="none" xmlns="http://www.w3.org/2000/svg">
<g id="Database">
<path id="Vector" d="M8 1.5C4.63562 1.5 2 3.0375 2 5V11C2 12.9625 4.63562 14.5 8 14.5C11.3644 14.5 14 12.9625 14 11V5C14 3.0375 11.3644 1.5 8 1.5ZM13 8C13 8.60125 12.5075 9.21438 11.6494 9.6825C10.6831 10.2094 9.38688 10.5 8 10.5C6.61312 10.5 5.31687 10.2094 4.35063 9.6825C3.4925 9.21438 3 8.60125 3 8V6.96C4.06625 7.8975 5.88937 8.5 8 8.5C10.1106 8.5 11.9338 7.895 13 6.96V8ZM11.6494 12.6825C10.6831 13.2094 9.38688 13.5 8 13.5C6.61312 13.5 5.31687 13.2094 4.35063 12.6825C3.4925 12.2144 3 11.6012 3 11V9.96C4.06625 10.8975 5.88937 11.5 8 11.5C10.1106 11.5 11.9338 10.895 13 9.96V11C13 11.6012 12.5075 12.2144 11.6494 12.6825Z" fill="white" fill-opacity="0.3"/>
</g>
</svg>
