<svg width="16" height="16" viewBox="0 0 16 16" fill="none" xmlns="http://www.w3.org/2000/svg">
<g id="FileArrowDown">
<path id="Vector" d="M13.3538 5.14625L9.85375 1.64625C9.80728 1.59983 9.75212 1.56303 9.69143 1.53793C9.63073 1.51284 9.56568 1.49995 9.5 1.5H3.5C3.23478 1.5 2.98043 1.60536 2.79289 1.79289C2.60536 1.98043 2.5 2.23478 2.5 2.5V13.5C2.5 13.7652 2.60536 14.0196 2.79289 14.2071C2.98043 14.3946 3.23478 14.5 3.5 14.5H12.5C12.7652 14.5 13.0196 14.3946 13.2071 14.2071C13.3946 14.0196 13.5 13.7652 13.5 13.5V5.5C13.5001 5.43432 13.4872 5.36927 13.4621 5.30858C13.437 5.24788 13.4002 5.19272 13.3538 5.14625ZM9.85375 10.3538L8.35375 11.8538C8.30731 11.9002 8.25217 11.9371 8.19147 11.9623C8.13077 11.9874 8.06571 12.0004 8 12.0004C7.93429 12.0004 7.86923 11.9874 7.80853 11.9623C7.74783 11.9371 7.69269 11.9002 7.64625 11.8538L6.14625 10.3538C6.05243 10.2599 5.99972 10.1327 5.99972 10C5.99972 9.86732 6.05243 9.74007 6.14625 9.64625C6.24007 9.55243 6.36732 9.49972 6.5 9.49972C6.63268 9.49972 6.75993 9.55243 6.85375 9.64625L7.5 10.2931V7.5C7.5 7.36739 7.55268 7.24021 7.64645 7.14645C7.74021 7.05268 7.86739 7 8 7C8.13261 7 8.25979 7.05268 8.35355 7.14645C8.44732 7.24021 8.5 7.36739 8.5 7.5V10.2931L9.14625 9.64625C9.24007 9.55243 9.36732 9.49972 9.5 9.49972C9.63268 9.49972 9.75993 9.55243 9.85375 9.64625C9.94757 9.74007 10.0003 9.86732 10.0003 10C10.0003 10.1327 9.94757 10.2599 9.85375 10.3538ZM9.5 5.5V2.75L12.25 5.5H9.5Z" fill="white" fill-opacity="0.3"/>
</g>
</svg>
