<svg width="64" height="64" viewBox="0 0 64 64" fill="none" xmlns="http://www.w3.org/2000/svg">
<rect width="64" height="64" rx="16" fill="#6AFF67" fill-opacity="0.2"/>
<mask id="mask0_7_12" style="mask-type:alpha" maskUnits="userSpaceOnUse" x="16" y="16" width="32" height="32">
<rect x="16" y="16" width="32" height="32" fill="#D9D9D9"/>
</mask>
<g mask="url(#mask0_7_12)">
<path d="M34.6667 38.6668H41.3334V32.0001H38.6667V36.0001H34.6667V38.6668ZM22.6667 32.0001H25.3334V28.0001H29.3334V25.3334H22.6667V32.0001ZM21.3334 42.6668C20.6 42.6668 19.9722 42.4056 19.45 41.8834C18.9278 41.3612 18.6667 40.7334 18.6667 40.0001V24.0001C18.6667 23.2668 18.9278 22.639 19.45 22.1168C19.9722 21.5945 20.6 21.3334 21.3334 21.3334H42.6667C43.4 21.3334 44.0278 21.5945 44.55 22.1168C45.0722 22.639 45.3334 23.2668 45.3334 24.0001V40.0001C45.3334 40.7334 45.0722 41.3612 44.55 41.8834C44.0278 42.4056 43.4 42.6668 42.6667 42.6668H21.3334Z" fill="#6AFF67"/>
</g>
</svg>
