<svg width="64" height="64" viewBox="0 0 64 64" fill="none" xmlns="http://www.w3.org/2000/svg">
<rect width="64" height="64" rx="16" fill="#FFD643" fill-opacity="0.2"/>
<mask id="mask0_7_20" style="mask-type:alpha" maskUnits="userSpaceOnUse" x="16" y="16" width="32" height="32">
<rect x="16" y="16" width="32" height="32" fill="#D9D9D9"/>
</mask>
<g mask="url(#mask0_7_20)">
<path d="M22.6667 44.0001C21.9333 44.0001 21.3056 43.739 20.7833 43.2168C20.2611 42.6945 20 42.0668 20 41.3334V22.6668C20 21.9334 20.2611 21.3056 20.7833 20.7834C21.3056 20.2612 21.9333 20.0001 22.6667 20.0001H28.2667C28.5556 19.2001 29.0389 18.5556 29.7167 18.0668C30.3944 17.5779 31.1556 17.3334 32 17.3334C32.8444 17.3334 33.6056 17.5779 34.2833 18.0668C34.9611 18.5556 35.4444 19.2001 35.7333 20.0001H41.3333C42.0667 20.0001 42.6944 20.2612 43.2167 20.7834C43.7389 21.3056 44 21.9334 44 22.6668V41.3334C44 42.0668 43.7389 42.6945 43.2167 43.2168C42.6944 43.739 42.0667 44.0001 41.3333 44.0001H22.6667ZM25.3333 38.6668H34.6667V36.0001H25.3333V38.6668ZM25.3333 33.3334H38.6667V30.6668H25.3333V33.3334ZM25.3333 28.0001H38.6667V25.3334H25.3333V28.0001ZM32 21.6668C32.2889 21.6668 32.5278 21.5723 32.7167 21.3834C32.9056 21.1945 33 20.9556 33 20.6668C33 20.3779 32.9056 20.139 32.7167 19.9501C32.5278 19.7612 32.2889 19.6668 32 19.6668C31.7111 19.6668 31.4722 19.7612 31.2833 19.9501C31.0944 20.139 31 20.3779 31 20.6668C31 20.9556 31.0944 21.1945 31.2833 21.3834C31.4722 21.5723 31.7111 21.6668 32 21.6668Z" fill="#FFD643"/>
</g>
</svg>
