<svg width="64" height="64" viewBox="0 0 64 64" fill="none" xmlns="http://www.w3.org/2000/svg">
<rect width="64" height="64" rx="16" fill="#FF725F" fill-opacity="0.2"/>
<mask id="mask0_7_28" style="mask-type:alpha" maskUnits="userSpaceOnUse" x="16" y="16" width="32" height="32">
<rect x="16" y="16" width="32" height="32" fill="#D9D9D9"/>
</mask>
<g mask="url(#mask0_7_28)">
<path d="M32 46.6668C29.9778 46.6668 28.0722 46.2834 26.2833 45.5168C24.4945 44.7501 22.9389 43.7056 21.6167 42.3834C20.2945 41.0612 19.25 39.5056 18.4833 37.7168C17.7167 35.9279 17.3333 34.0223 17.3333 32.0001C17.3333 29.9556 17.7167 28.0445 18.4833 26.2668C19.25 24.489 20.2945 22.939 21.6167 21.6168C22.9389 20.2945 24.4945 19.2501 26.2833 18.4834C28.0722 17.7168 29.9778 17.3334 32 17.3334C34.0445 17.3334 35.9556 17.7168 37.7333 18.4834C39.5111 19.2501 41.0611 20.2945 42.3833 21.6168C43.7056 22.939 44.75 24.489 45.5167 26.2668C46.2833 28.0445 46.6667 29.9556 46.6667 32.0001C46.6667 34.0223 46.2833 35.9279 45.5167 37.7168C44.75 39.5056 43.7056 41.0612 42.3833 42.3834C41.0611 43.7056 39.5111 44.7501 37.7333 45.5168C35.9556 46.2834 34.0445 46.6668 32 46.6668ZM31.1667 42.3668C31.3889 42.589 31.6445 42.7001 31.9333 42.7001C32.2222 42.7001 32.4778 42.589 32.7 42.3668L42.3 32.7668C42.5222 32.5445 42.6333 32.2779 42.6333 31.9668C42.6333 31.6556 42.5222 31.389 42.3 31.1668L32.7 21.5668C32.4778 21.3445 32.2222 21.2334 31.9333 21.2334C31.6445 21.2334 31.3889 21.3445 31.1667 21.5668L21.5667 31.1668C21.3445 31.389 21.2333 31.6556 21.2333 31.9668C21.2333 32.2779 21.3445 32.5445 21.5667 32.7668L31.1667 42.3668ZM26.6333 35.9668V30.6334C26.6333 30.2334 26.7556 29.9112 27 29.6668C27.2445 29.4223 27.5667 29.3001 27.9667 29.3001H33.5L32.1 27.8334L33.9667 25.9668L38.6333 30.6334L33.9667 35.3001L32.1 33.4334L33.5 31.9668H29.3V35.9668H26.6333Z" fill="#FF725F"/>
</g>
</svg>
